<mxfile host="app.diagrams.net" modified="2023-09-27T15:32:27.868Z" agent="Mozilla/5.0 (Windows NT 10.0; Win64; x64) AppleWebKit/537.36 (KHTML, like Gecko) Chrome/108.0.0.0 Safari/537.36 Edg/108.0.1462.42" version="21.8.2" etag="l94rBBlZ_87OGdN7US7S" type="github">
  <diagram name="Page-1" id="rEhsToPQ1Og9mvEfil5e">
    <mxGraphModel>
      <root>
        <mxCell id="0" />
        <mxCell id="1" parent="0" />
      </root>
    </mxGraphModel>
  </diagram>
</mxfile>
